<svg width="810" height="810" viewBox="0 0 810 810" fill="none" xmlns="http://www.w3.org/2000/svg">
<rect x="385" y="385" width="40" height="40" fill="#ED4B2F"/>
<path d="M0 525C0 469.772 44.7715 425 100 425H385V710C385 765.228 340.228 810 285 810H200C89.5431 810 0 720.457 0 610V525Z" fill="#ED4B2F"/>
<path d="M425 425H710C765.228 425 810 469.772 810 525V610C810 720.457 720.457 810 610 810H525C469.772 810 425 765.228 425 710V425Z" fill="#ED4B2F"/>
<path d="M0 200C0 89.5431 89.5431 0 200 0H285C340.228 0 385 44.7715 385 100V385H100C44.7715 385 0 340.228 0 285V200Z" fill="#ED4B2F"/>
<path d="M425 100C425 44.7715 469.772 0 525 0H610C720.457 0 810 89.5431 810 200V285C810 340.228 765.228 385 710 385H425V100Z" fill="#ED4B2F"/>
</svg>
