<svg width="910" height="910" viewBox="0 0 910 910" fill="none" xmlns="http://www.w3.org/2000/svg">
<rect width="910" height="910" fill="white"/>
<rect x="435" y="435" width="40" height="40" fill="#ED4B2F"/>
<path d="M50 575C50 519.772 94.7715 475 150 475H435V760C435 815.228 390.228 860 335 860H250C139.543 860 50 770.457 50 660V575Z" fill="#ED4B2F"/>
<path d="M475 475H760C815.228 475 860 519.772 860 575V660C860 770.457 770.457 860 660 860H575C519.772 860 475 815.228 475 760V475Z" fill="#ED4B2F"/>
<path d="M50 250C50 139.543 139.543 50 250 50H335C390.228 50 435 94.7715 435 150V435H150C94.7715 435 50 390.228 50 335V250Z" fill="#ED4B2F"/>
<path d="M475 150C475 94.7715 519.772 50 575 50H660C770.457 50 860 139.543 860 250V335C860 390.228 815.228 435 760 435H475V150Z" fill="#ED4B2F"/>
</svg>
