<svg width="810" height="810" viewBox="0 0 810 810" fill="none" xmlns="http://www.w3.org/2000/svg">
<rect x="365" y="365" width="78" height="80" fill="#ED4B2F"/>
<path d="M0 545C0 489.772 44.7715 445 100 445H365V710C365 765.228 320.228 810 265 810H200C89.5431 810 0 720.457 0 610V545Z" fill="#ED4B2F"/>
<path d="M443 445H710C765.228 445 810 489.772 810 545V610C810 720.457 720.457 810 610 810H543C487.772 810 443 765.228 443 710V445Z" fill="#ED4B2F"/>
<path d="M0 200C0 89.5431 89.5431 0 200 0H265C320.228 0 365 44.7715 365 100V365H100C44.7715 365 0 320.228 0 265V200Z" fill="#ED4B2F"/>
<path d="M443 100C443 44.7715 487.772 0 543 0H608C718.457 0 808 89.5431 808 200V265C808 320.228 763.228 365 708 365H443V100Z" fill="#ED4B2F"/>
</svg>
