<?xml version="1.0" encoding="UTF-8"?>
<svg xmlns="http://www.w3.org/2000/svg" width="1120" height="550" viewBox="0 0 1120 550" role="img">
<title>No database throughput</title>
<rect width="100%" height="100%" rx="16" fill="#f8fafc"/>
<text x="32" y="46" fill="#0f172a" font-size="26" font-family="Inter, ui-sans-serif, system-ui" font-weight="700">No database throughput</text>
<text x="32" y="76" fill="#475569" font-size="15" font-family="Inter, ui-sans-serif, system-ui">Requests per second at concurrency 100. Higher is better.</text>
<g><rect x="790" y="31" width="14" height="14" rx="3" fill="#2563eb"/><text x="810" y="44" fill="#334155" font-size="14" font-family="Inter, ui-sans-serif, system-ui">Quater</text></g>
<g><rect x="900" y="31" width="14" height="14" rx="3" fill="#10b981"/><text x="920" y="44" fill="#334155" font-size="14" font-family="Inter, ui-sans-serif, system-ui">FastAPI</text></g>
<line x1="250" y1="92" x2="964" y2="92" stroke="#cbd5e1"/>
<text x="32" y="150" fill="#0f172a" font-size="16" font-family="Inter, ui-sans-serif, system-ui" font-weight="600">Health JSON</text>
<text x="182" y="143" fill="#475569" font-size="13" font-family="Inter, ui-sans-serif, system-ui">Quater</text>
<rect x="250" y="126" width="375.96" height="20" rx="5" fill="#2563eb"/>
<text x="635.96" y="142" fill="#0f172a" font-size="13" font-family="Inter, ui-sans-serif, system-ui">7,471 rps</text>
<text x="182" y="171" fill="#475569" font-size="13" font-family="Inter, ui-sans-serif, system-ui">FastAPI</text>
<rect x="250" y="154" width="606.74" height="20" rx="5" fill="#10b981"/>
<text x="866.74" y="170" fill="#0f172a" font-size="13" font-family="Inter, ui-sans-serif, system-ui">12,056 rps</text>
<text x="32" y="226" fill="#0f172a" font-size="16" font-family="Inter, ui-sans-serif, system-ui" font-weight="600">Large JSON response</text>
<text x="182" y="219" fill="#475569" font-size="13" font-family="Inter, ui-sans-serif, system-ui">Quater</text>
<rect x="250" y="202" width="152.07" height="20" rx="5" fill="#2563eb"/>
<text x="412.07" y="218" fill="#0f172a" font-size="13" font-family="Inter, ui-sans-serif, system-ui">3,022 rps</text>
<text x="182" y="247" fill="#475569" font-size="13" font-family="Inter, ui-sans-serif, system-ui">FastAPI</text>
<rect x="250" y="230" width="139.80" height="20" rx="5" fill="#10b981"/>
<text x="399.80" y="246" fill="#0f172a" font-size="13" font-family="Inter, ui-sans-serif, system-ui">2,778 rps</text>
<text x="32" y="302" fill="#0f172a" font-size="16" font-family="Inter, ui-sans-serif, system-ui" font-weight="600">JSON body echo</text>
<text x="182" y="295" fill="#475569" font-size="13" font-family="Inter, ui-sans-serif, system-ui">Quater</text>
<rect x="250" y="278" width="382.24" height="20" rx="5" fill="#2563eb"/>
<text x="642.24" y="294" fill="#0f172a" font-size="13" font-family="Inter, ui-sans-serif, system-ui">7,595 rps</text>
<text x="182" y="323" fill="#475569" font-size="13" font-family="Inter, ui-sans-serif, system-ui">FastAPI</text>
<rect x="250" y="306" width="714.00" height="20" rx="5" fill="#10b981"/>
<text x="974.00" y="322" fill="#0f172a" font-size="13" font-family="Inter, ui-sans-serif, system-ui">14,187 rps</text>
<text x="32" y="378" fill="#0f172a" font-size="16" font-family="Inter, ui-sans-serif, system-ui" font-weight="600">Typed body + auth</text>
<text x="182" y="371" fill="#475569" font-size="13" font-family="Inter, ui-sans-serif, system-ui">Quater</text>
<rect x="250" y="354" width="505.11" height="20" rx="5" fill="#2563eb"/>
<text x="765.11" y="370" fill="#0f172a" font-size="13" font-family="Inter, ui-sans-serif, system-ui">10,037 rps</text>
<text x="182" y="399" fill="#475569" font-size="13" font-family="Inter, ui-sans-serif, system-ui">FastAPI</text>
<rect x="250" y="382" width="544.91" height="20" rx="5" fill="#10b981"/>
<text x="804.91" y="398" fill="#0f172a" font-size="13" font-family="Inter, ui-sans-serif, system-ui">10,828 rps</text>
<text x="32" y="454" fill="#0f172a" font-size="16" font-family="Inter, ui-sans-serif, system-ui" font-weight="600">Large bytes response</text>
<text x="182" y="447" fill="#475569" font-size="13" font-family="Inter, ui-sans-serif, system-ui">Quater</text>
<rect x="250" y="430" width="124.11" height="20" rx="5" fill="#2563eb"/>
<text x="384.11" y="446" fill="#0f172a" font-size="13" font-family="Inter, ui-sans-serif, system-ui">2,466 rps</text>
<text x="182" y="475" fill="#475569" font-size="13" font-family="Inter, ui-sans-serif, system-ui">FastAPI</text>
<rect x="250" y="458" width="101.32" height="20" rx="5" fill="#10b981"/>
<text x="361.32" y="474" fill="#0f172a" font-size="13" font-family="Inter, ui-sans-serif, system-ui">2,013 rps</text>
<text x="32" y="528" fill="#64748b" font-size="12" font-family="Inter, ui-sans-serif, system-ui">Numbers are generated from your local benchmark run.</text>
</svg>
