<?xml version="1.0" encoding="UTF-8"?>
<svg xmlns="http://www.w3.org/2000/svg" width="1120" height="550" viewBox="0 0 1120 550" role="img">
<title>Postgres p95 latency</title>
<rect width="100%" height="100%" rx="16" fill="#f8fafc"/>
<text x="32" y="46" fill="#0f172a" font-size="26" font-family="Inter, ui-sans-serif, system-ui" font-weight="700">Postgres p95 latency</text>
<text x="32" y="76" fill="#475569" font-size="15" font-family="Inter, ui-sans-serif, system-ui">Milliseconds at concurrency 25. Lower is better.</text>
<g><rect x="790" y="31" width="14" height="14" rx="3" fill="#2563eb"/><text x="810" y="44" fill="#334155" font-size="14" font-family="Inter, ui-sans-serif, system-ui">Quater</text></g>
<g><rect x="900" y="31" width="14" height="14" rx="3" fill="#10b981"/><text x="920" y="44" fill="#334155" font-size="14" font-family="Inter, ui-sans-serif, system-ui">FastAPI</text></g>
<line x1="250" y1="92" x2="964" y2="92" stroke="#cbd5e1"/>
<text x="32" y="150" fill="#0f172a" font-size="16" font-family="Inter, ui-sans-serif, system-ui" font-weight="600">DB health check</text>
<text x="182" y="143" fill="#475569" font-size="13" font-family="Inter, ui-sans-serif, system-ui">Quater</text>
<rect x="250" y="126" width="506.36" height="20" rx="5" fill="#2563eb"/>
<text x="766.36" y="142" fill="#0f172a" font-size="13" font-family="Inter, ui-sans-serif, system-ui">127.0 ms</text>
<text x="182" y="171" fill="#475569" font-size="13" font-family="Inter, ui-sans-serif, system-ui">FastAPI</text>
<rect x="250" y="154" width="497.55" height="20" rx="5" fill="#10b981"/>
<text x="757.55" y="170" fill="#0f172a" font-size="13" font-family="Inter, ui-sans-serif, system-ui">124.8 ms</text>
<text x="32" y="226" fill="#0f172a" font-size="16" font-family="Inter, ui-sans-serif, system-ui" font-weight="600">Product list</text>
<text x="182" y="219" fill="#475569" font-size="13" font-family="Inter, ui-sans-serif, system-ui">Quater</text>
<rect x="250" y="202" width="606.87" height="20" rx="5" fill="#2563eb"/>
<text x="866.87" y="218" fill="#0f172a" font-size="13" font-family="Inter, ui-sans-serif, system-ui">152.2 ms</text>
<text x="182" y="247" fill="#475569" font-size="13" font-family="Inter, ui-sans-serif, system-ui">FastAPI</text>
<rect x="250" y="230" width="713.69" height="20" rx="5" fill="#10b981"/>
<text x="973.69" y="246" fill="#0f172a" font-size="13" font-family="Inter, ui-sans-serif, system-ui">179.0 ms</text>
<text x="32" y="302" fill="#0f172a" font-size="16" font-family="Inter, ui-sans-serif, system-ui" font-weight="600">Product detail</text>
<text x="182" y="295" fill="#475569" font-size="13" font-family="Inter, ui-sans-serif, system-ui">Quater</text>
<rect x="250" y="278" width="498.81" height="20" rx="5" fill="#2563eb"/>
<text x="758.81" y="294" fill="#0f172a" font-size="13" font-family="Inter, ui-sans-serif, system-ui">125.1 ms</text>
<text x="182" y="323" fill="#475569" font-size="13" font-family="Inter, ui-sans-serif, system-ui">FastAPI</text>
<rect x="250" y="306" width="584.04" height="20" rx="5" fill="#10b981"/>
<text x="844.04" y="322" fill="#0f172a" font-size="13" font-family="Inter, ui-sans-serif, system-ui">146.5 ms</text>
<text x="32" y="378" fill="#0f172a" font-size="16" font-family="Inter, ui-sans-serif, system-ui" font-weight="600">Order list</text>
<text x="182" y="371" fill="#475569" font-size="13" font-family="Inter, ui-sans-serif, system-ui">Quater</text>
<rect x="250" y="354" width="566.92" height="20" rx="5" fill="#2563eb"/>
<text x="826.92" y="370" fill="#0f172a" font-size="13" font-family="Inter, ui-sans-serif, system-ui">142.2 ms</text>
<text x="182" y="399" fill="#475569" font-size="13" font-family="Inter, ui-sans-serif, system-ui">FastAPI</text>
<rect x="250" y="382" width="714.00" height="20" rx="5" fill="#10b981"/>
<text x="974.00" y="398" fill="#0f172a" font-size="13" font-family="Inter, ui-sans-serif, system-ui">179.1 ms</text>
<text x="32" y="454" fill="#0f172a" font-size="16" font-family="Inter, ui-sans-serif, system-ui" font-weight="600">Summary report</text>
<text x="182" y="447" fill="#475569" font-size="13" font-family="Inter, ui-sans-serif, system-ui">Quater</text>
<rect x="250" y="430" width="461.31" height="20" rx="5" fill="#2563eb"/>
<text x="721.31" y="446" fill="#0f172a" font-size="13" font-family="Inter, ui-sans-serif, system-ui">115.7 ms</text>
<text x="182" y="475" fill="#475569" font-size="13" font-family="Inter, ui-sans-serif, system-ui">FastAPI</text>
<rect x="250" y="458" width="574.10" height="20" rx="5" fill="#10b981"/>
<text x="834.10" y="474" fill="#0f172a" font-size="13" font-family="Inter, ui-sans-serif, system-ui">144.0 ms</text>
<text x="32" y="528" fill="#64748b" font-size="12" font-family="Inter, ui-sans-serif, system-ui">Numbers are generated from your local benchmark run.</text>
</svg>
